<svg xmlns="http://www.w3.org/2000/svg" width="19.023" height="19.023" viewBox="0 0 19.023 19.023"><defs><style>.a{fill:none;}.b{fill:#fff;}</style></defs><g transform="translate(0 0)"><path class="a" d="M0,0H19.023V19.023H0Z"/><path class="b" d="M15.06,15.853H.793A.794.794,0,0,1,0,15.06V2.378a.794.794,0,0,1,.793-.793H3.963V0H5.548V1.585H10.3V0h1.585V1.585H15.06a.794.794,0,0,1,.793.793V15.06A.794.794,0,0,1,15.06,15.853ZM1.585,7.926v6.341H14.267V7.926Zm0-4.755V6.341H14.267V3.171H11.889V4.755H10.3V3.171H5.548V4.755H3.963V3.171Z" transform="translate(1.585 0.793)"/></g></svg>