<svg xmlns="http://www.w3.org/2000/svg" width="19.023" height="19.023" viewBox="0 0 19.023 19.023"><defs><style>.a{fill:none;}.b{fill:#fff;}</style></defs><g transform="translate(0 0)"><path class="a" d="M0,0H19.023V19.023H0Z"/><path class="b" d="M14.691,13.441H2.008V11.856H14.691V13.44ZM2.772,9.621a.793.793,0,0,1-.693-.408L0,5.468,1.148,5.16,3.1,7.1l4.04-1.083L3.569.411,5.1,0l5.51,5.089L14.78,3.971a1.189,1.189,0,0,1,.615,2.3L3.621,9.421l-.644.173A.791.791,0,0,1,2.772,9.621Z" transform="translate(1.162 3.204)"/></g></svg>