<svg xmlns="http://www.w3.org/2000/svg" width="19.023" height="19.023" viewBox="0 0 19.023 19.023"><defs><style>.a{fill:none;}.b{fill:#fff;}</style></defs><g transform="translate(0 0)"><path class="a" d="M0,0H19.023V19.023H0Z"/><path class="b" d="M13.709,14.99H1.026V13.4H13.709v1.585Zm-.4-3.964A1.189,1.189,0,0,1,13,10.986L1.138,7.807.587,7.659A.793.793,0,0,1,0,6.88L.072,2.6l1.148.308.724,2.656L5.984,6.644,5.691,0,7.223.411,9.45,7.572,13.62,8.69a1.189,1.189,0,0,1-.307,2.337Z" transform="translate(2.378 2.378)"/></g></svg>