<svg xmlns="http://www.w3.org/2000/svg" width="46.677" height="11.41" viewBox="0 0 46.677 11.41"><defs><style>.a{fill:#333;}</style></defs><g transform="translate(-118.826 -607.746)"><path class="a" d="M12.068,6.588a1.266,1.266,0,0,1-.909.353L8.453,6.886,6.132,11.41H4.083L5.2,6.82,2.761,6.771,1.978,7.839H0L1.048,5.7,0,3.571H1.978l.783,1.068L5.2,4.589,4.083,0H6.132L8.453,4.524l2.707-.055a1.266,1.266,0,0,1,.909.353l.01.009a1.219,1.219,0,0,1-.01,1.757Z" transform="translate(135.94 607.746)"/><path class="a" d="M1.556,3.112A1.556,1.556,0,1,1,3.112,1.556,1.558,1.558,0,0,1,1.556,3.112ZM7.78,2.593A1.037,1.037,0,1,1,8.817,1.556,1.039,1.039,0,0,1,7.78,2.593Zm5.186-.519a.519.519,0,1,1,.519-.519A.519.519,0,0,1,12.966,2.074Z" transform="translate(152.018 611.895)"/><path class="a" d="M11.929,3.112a1.556,1.556,0,1,1,1.556-1.556A1.558,1.558,0,0,1,11.929,3.112ZM5.7,2.593A1.037,1.037,0,1,1,6.742,1.556,1.039,1.039,0,0,1,5.7,2.593ZM.519,2.074a.519.519,0,1,1,.519-.519A.519.519,0,0,1,.519,2.074Z" transform="translate(118.826 611.895)"/></g></svg>