<svg xmlns="http://www.w3.org/2000/svg" xmlns:xlink="http://www.w3.org/1999/xlink" width="375" height="201.667" viewBox="0 0 375 201.667"><defs><style>.a{fill:#e6eaf8;}.b{fill:url(#a);}.c{clip-path:url(#b);}.d{fill:url(#c);}.e{clip-path:url(#e);}.f{fill:none;stroke:#fff;stroke-miterlimit:10;stroke-width:2px;opacity:0.299;}.g{fill:url(#f);}.h{fill:url(#g);}.i{fill:#01e1bf;}</style><linearGradient id="a" x1="0.5" x2="0.5" y2="1" gradientUnits="objectBoundingBox"><stop offset="0" stop-color="#3d51e4"/><stop offset="1" stop-color="#2a47b1"/></linearGradient><clipPath id="b"><path class="a" d="M15,90H-360V291.667h257.3a66.667,66.667,0,0,0,47.044-19.43L15,201.871Z" transform="translate(360 0)"/></clipPath><linearGradient id="c" x1="0.994" y1="0.506" x2="0.023" y2="0.506" gradientUnits="objectBoundingBox"><stop offset="0" stop-color="#abb6d2" stop-opacity="0.176"/><stop offset="1" stop-color="#abb6d2" stop-opacity="0.098"/></linearGradient><clipPath id="e"><path class="b" d="M15,0H-360V141.667h257.3a66.667,66.667,0,0,0,47.044-19.43L15,51.871Z" transform="translate(360 0)"/></clipPath><linearGradient id="f" x1="0.994" y1="0.506" x2="0.023" y2="0.506" gradientUnits="objectBoundingBox"><stop offset="0" stop-opacity="0"/><stop offset="1" stop-opacity="0.161"/></linearGradient><linearGradient id="g" x1="0.023" y1="0.506" x2="0.994" y2="0.506" gradientUnits="objectBoundingBox"><stop offset="0" stop-color="#fff" stop-opacity="0"/><stop offset="1" stop-color="#fff" stop-opacity="0.161"/></linearGradient></defs><g transform="translate(0 -90)"><path class="a" d="M15,90H-360V291.667h257.3a66.667,66.667,0,0,0,47.044-19.43L15,201.871Z" transform="translate(360 0)"/><g class="c" transform="translate(0 0)"><path class="d" d="M0,224.443l565.854-.784L566.164,0,.31.784Z" transform="matrix(0.719, -0.695, 0.695, 0.719, 46.286, 315.642)"/></g></g><path class="b" d="M15,0H-360V141.667h257.3a66.667,66.667,0,0,0,47.044-19.43L15,51.871Z" transform="translate(360 0)"/><g class="e" transform="translate(0 0)"><path class="f" d="M9.967.9-247,257.864" transform="translate(434.5 -148.921)"/><path class="f" d="M9.967.9-247,257.864" transform="translate(43.875 -16.629)"/><path class="g" d="M0,224.443l565.854-.784L566.164,0,.31.784Z" transform="matrix(0.719, -0.695, 0.695, 0.719, 46.286, 315.642)"/><path class="h" d="M0,224.443l565.854-.784L566.164,0,.31.784Z" transform="matrix(0.719, -0.695, 0.695, 0.719, -306.839, 59.392)"/><path class="i" d="M14.556,14.1l181.063.429L195.726,0,0,.051Z" transform="matrix(0.719, -0.695, 0.695, 0.719, 240.625, 72.421)"/></g></svg>