<svg xmlns="http://www.w3.org/2000/svg" width="28.535" height="28.535" viewBox="0 0 28.535 28.535"><defs><style>.a{fill:none;}.b{fill:#fff;}</style></defs><g transform="translate(0 0)"><path class="a" d="M0,0H28.535V28.535H0Z"/><path class="b" d="M22.47,24.152h0l-5.09-5.092A10.693,10.693,0,0,1,10.715,21.4H10.7a10.7,10.7,0,1,1,8.359-4.022l5.092,5.091-1.681,1.681ZM10.7,2.378a8.323,8.323,0,0,0,0,16.646h.012A8.254,8.254,0,0,0,16.5,16.675l.178-.178A8.324,8.324,0,0,0,10.7,2.378Z" transform="translate(2.378 2.378)"/></g></svg>